<svg width="30" height="30" viewBox="0 0 30 30" fill="none" xmlns="http://www.w3.org/2000/svg">
<path fill-rule="evenodd" clip-rule="evenodd" d="M15 30C23.2845 30 30 23.2845 30 15C30 6.7155 23.2845 0 15 0C6.7155 0 0 6.7155 0 15C0 23.2845 6.7155 30 15 30ZM20.304 9.696C20.5857 9.41474 20.9675 9.25688 21.3656 9.25717C21.7636 9.25745 22.1452 9.41584 22.4265 9.6975C22.7078 9.97916 22.8656 10.361 22.8653 10.7591C22.8651 11.1571 22.7067 11.5387 22.425 11.82L13.9455 20.2995L13.9395 20.3055C13.8005 20.4453 13.6353 20.5562 13.4533 20.6319C13.2713 20.7076 13.0761 20.7466 12.879 20.7466C12.6819 20.7466 12.4867 20.7076 12.3047 20.6319C12.1227 20.5562 11.9575 20.4453 11.8185 20.3055L11.8125 20.2995L7.575 16.062C7.43174 15.9236 7.31746 15.7581 7.23885 15.5751C7.16023 15.3921 7.11885 15.1953 7.11712 14.9961C7.11539 14.7969 7.15335 14.5994 7.22877 14.4151C7.30419 14.2307 7.41557 14.0632 7.55641 13.9224C7.69725 13.7816 7.86472 13.6702 8.04907 13.5948C8.23341 13.5193 8.43093 13.4814 8.6301 13.4831C8.82927 13.4849 9.0261 13.5262 9.20911 13.6048C9.39211 13.6835 9.55763 13.7977 9.696 13.941L12.879 17.1225L20.304 9.6975V9.696Z" fill="white"/>
</svg>
