<svg width="30" height="29" viewBox="0 0 30 29" fill="none" xmlns="http://www.w3.org/2000/svg">
<path d="M11.25 28.125C12.246 28.125 13.1847 28.0339 14.0625 27.8659C8.71259 26.8405 5.625 22.9353 5.625 19.1249V18.0002C5.625 16.1362 7.13605 14.6251 9.00001 14.6251H3.37501C1.51105 14.6251 0 16.1362 0 18.0002V19.1249C0 23.5606 4.1839 28.125 11.25 28.125Z" fill="white"/>
<path d="M14.0625 0.674744C13.2187 0.24353 12.2627 0 11.25 0C7.83274 0 5.06249 2.77039 5.06249 6.18759C5.06249 9.6048 7.83274 12.3752 11.25 12.3752C12.2627 12.3752 13.2187 12.1317 14.0625 11.7004C12.0591 10.6764 10.6875 8.59222 10.6875 6.18759C10.6875 3.78296 12.0591 1.69876 14.0625 0.674744Z" fill="white"/>
<path d="M26.625 14.625C28.489 14.625 30 16.136 30 18V19.125C30 23.5607 25.8161 28.125 18.75 28.125C11.6839 28.125 7.5 23.5607 7.5 19.125V18C7.5 16.136 9.01104 14.625 10.875 14.625H26.625ZM18.75 0C22.1673 0 24.9375 2.77024 24.9375 6.1875C24.9375 9.60476 22.1673 12.375 18.75 12.375C15.3327 12.375 12.5625 9.60476 12.5625 6.1875C12.5625 2.77024 15.3327 0 18.75 0Z" fill="white"/>
</svg>
