<svg width="20" height="15" viewBox="0 0 20 15" fill="none" xmlns="http://www.w3.org/2000/svg">
<path d="M2.50767 7.99903H12.6664C12.8432 7.99903 13.0128 7.92881 13.1378 7.8038C13.2628 7.67879 13.333 7.50924 13.333 7.33245C13.333 7.15566 13.2628 6.98611 13.1378 6.8611C13.0128 6.73609 12.8432 6.66586 12.6664 6.66586H2.50767L5.09402 4.51279C5.23015 4.39964 5.31576 4.23706 5.33201 4.06079C5.34826 3.88453 5.29382 3.70903 5.18068 3.5729C5.12465 3.5055 5.0559 3.44979 4.97835 3.40896C4.9008 3.36812 4.81596 3.34296 4.72868 3.33492C4.55242 3.31867 4.37692 3.3731 4.24079 3.48625L0.241275 6.81918C0.16579 6.88173 0.105031 6.96015 0.0633268 7.04887C0.0216226 7.13759 0 7.23442 0 7.33245C0 7.43048 0.0216226 7.52731 0.0633268 7.61602C0.105031 7.70474 0.16579 7.78317 0.241275 7.84572L4.24079 11.1787C4.36072 11.278 4.51166 11.3323 4.66741 11.332C4.76534 11.3321 4.8621 11.3107 4.95081 11.2692C5.03952 11.2278 5.118 11.1672 5.18068 11.092C5.23681 11.0246 5.27909 10.9469 5.30512 10.8631C5.33115 10.7794 5.3404 10.6914 5.33235 10.6041C5.3243 10.5168 5.29911 10.4319 5.25821 10.3543C5.21731 10.2768 5.16152 10.2081 5.09402 10.1521L2.50767 7.99903Z" fill="white"/>
<path d="M12.6664 8.41726e-08C11.2399 0.000216216 9.84441 0.416549 8.65094 1.19799C7.45747 1.97942 6.51787 3.09203 5.94725 4.39947C5.91195 4.47996 5.89291 4.56665 5.89124 4.65453C5.88957 4.74241 5.90529 4.82975 5.93751 4.91153C5.96972 4.99331 6.0178 5.06791 6.07896 5.13104C6.14012 5.19417 6.21316 5.24457 6.29388 5.27936C6.45571 5.34858 6.63834 5.35098 6.80194 5.28604C6.96553 5.2211 7.0968 5.0941 7.16711 4.93274C7.71842 3.66953 8.68787 2.63467 9.91244 2.00217C11.137 1.36968 12.542 1.17812 13.8912 1.45972C15.2404 1.74131 16.4515 2.47888 17.3209 3.54841C18.1902 4.61793 18.6648 5.95417 18.6648 7.33245C18.6648 8.71072 18.1902 10.047 17.3209 11.1165C16.4515 12.186 15.2404 12.9236 13.8912 13.2052C12.542 13.4868 11.137 13.2952 9.91244 12.6627C8.68787 12.0302 7.71842 10.9954 7.16711 9.73216C7.0968 9.5708 6.96553 9.4438 6.80194 9.37886C6.63834 9.31392 6.45571 9.31632 6.29388 9.38553C6.21316 9.42032 6.14012 9.47073 6.07896 9.53386C6.0178 9.59699 5.96972 9.67159 5.93751 9.75337C5.90529 9.83515 5.88957 9.92249 5.89124 10.0104C5.89291 10.0983 5.91195 10.1849 5.94725 10.2654C6.47606 11.4771 7.3226 12.5232 8.39729 13.2931C9.47198 14.063 10.7348 14.5281 12.0522 14.639C13.3695 14.75 14.6924 14.5027 15.8807 13.9234C17.069 13.3441 18.0786 12.4543 18.8026 11.3481C19.5266 10.242 19.9381 8.9607 19.9936 7.63985C20.049 6.319 19.7463 5.00774 19.1175 3.84484C18.4887 2.68194 17.5572 1.71068 16.4215 1.03385C15.2859 0.357019 13.9885 -0.000200198 12.6664 8.41726e-08Z" fill="white"/>
</svg>
