<svg width="26" height="33" viewBox="0 0 26 33" fill="none" xmlns="http://www.w3.org/2000/svg">
<path d="M13 14.7723C14.4127 14.7723 15.7937 14.3611 16.9684 13.5907C18.143 12.8203 19.0585 11.7253 19.5991 10.4442C20.1398 9.16309 20.2812 7.75338 20.0056 6.39335C19.73 5.03332 19.0497 3.78405 18.0508 2.80352C17.0518 1.823 15.7791 1.15525 14.3935 0.884721C13.0079 0.614194 11.5717 0.753038 10.2665 1.2837C8.96136 1.81435 7.8458 2.71299 7.06093 3.86597C6.27606 5.01895 5.85714 6.37449 5.85714 7.76116C5.85714 9.62064 6.60969 11.404 7.94924 12.7188C9.28878 14.0336 11.1056 14.7723 13 14.7723ZM13 4.25558C13.7064 4.25558 14.3969 4.46118 14.9842 4.84638C15.5715 5.23158 16.0293 5.77907 16.2996 6.41963C16.5699 7.06019 16.6406 7.76505 16.5028 8.44507C16.365 9.12508 16.0249 9.74971 15.5254 10.24C15.0259 10.7302 14.3895 11.0641 13.6968 11.1994C13.004 11.3346 12.2859 11.2652 11.6333 10.9999C10.9807 10.7346 10.4229 10.2852 10.0305 9.70876C9.63803 9.13227 9.42857 8.4545 9.42857 7.76116C9.42857 6.83142 9.80485 5.93977 10.4746 5.28234C11.1444 4.62492 12.0528 4.25558 13 4.25558ZM13 18.2779C9.68479 18.2779 6.50537 19.5706 4.16116 21.8716C1.81696 24.1725 0.5 27.2933 0.5 30.5474C0.5 31.0123 0.688138 31.4581 1.02302 31.7868C1.35791 32.1155 1.81211 32.3002 2.28571 32.3002C2.75932 32.3002 3.21352 32.1155 3.5484 31.7868C3.88329 31.4581 4.07143 31.0123 4.07143 30.5474C4.07143 28.2231 5.01211 25.9939 6.68655 24.3504C8.36098 22.7068 10.632 21.7835 13 21.7835C15.368 21.7835 17.639 22.7068 19.3135 24.3504C20.9879 25.9939 21.9286 28.2231 21.9286 30.5474C21.9286 31.0123 22.1167 31.4581 22.4516 31.7868C22.7865 32.1155 23.2407 32.3002 23.7143 32.3002C24.1879 32.3002 24.6421 32.1155 24.977 31.7868C25.3119 31.4581 25.5 31.0123 25.5 30.5474C25.5 27.2933 24.183 24.1725 21.8388 21.8716C19.4946 19.5706 16.3152 18.2779 13 18.2779Z" fill="white"/>
</svg>
