<svg width="34" height="35" viewBox="0 0 34 35" fill="none" xmlns="http://www.w3.org/2000/svg">
<path d="M21.2857 21.6389V25.748M21.2857 32.3531H32V21.6388M26.6429 24.8531H31.6652M3.42857 2H11.2857C12.0747 2 12.7143 2.63959 12.7143 3.42857V11.2857C12.7143 12.0747 12.0747 12.7143 11.2857 12.7143H3.42857C2.63959 12.7143 2 12.0747 2 11.2857V3.42857C2 2.63959 2.63959 2 3.42857 2ZM3.42858 21.2857H11.2857C12.0747 21.2857 12.7143 21.9253 12.7143 22.7143V30.5715C12.7143 31.3604 12.0747 32 11.2857 32H3.42858C2.6396 32 2.00001 31.3604 2.00001 30.5715V22.7143C2.00001 21.9253 2.6396 21.2857 3.42858 21.2857ZM22.7143 2.00002H30.5714C31.3604 2.00002 32 2.63961 32 3.42859V11.2857C32 12.0747 31.3604 12.7143 30.5714 12.7143H22.7143C21.9253 12.7143 21.2857 12.0747 21.2857 11.2857V3.42859C21.2857 2.63961 21.9253 2.00002 22.7143 2.00002Z" stroke="white" stroke-width="4" stroke-linecap="round" stroke-linejoin="round"/>
</svg>
