<svg width="50" height="41" viewBox="0 0 50 41" fill="none" xmlns="http://www.w3.org/2000/svg">
<path d="M48.1755 20.9928C48.801 20.9212 49.4127 21.2103 49.7483 21.7362C50.0839 22.2622 50.0839 22.9316 49.7483 23.4575C49.4127 23.9835 48.801 24.2726 48.1755 24.201H45.8634V30.2512C45.8692 33.0759 44.7365 35.7868 42.7151 37.7862C40.6938 39.7855 37.9497 40.9091 35.0882 40.9091H33.3214C32.4179 40.9091 31.6854 40.1861 31.6854 39.2943C31.6854 38.4024 32.4179 37.6794 33.3214 37.6794H35.0882C39.2101 37.6322 42.5264 34.3203 42.5261 30.2512V24.201H36.3969V26.6124C36.3969 27.9544 35.8568 29.2414 34.8956 30.1903C33.9343 31.1392 32.6305 31.6722 31.271 31.6722H18.7944C15.9635 31.6722 13.6685 29.4069 13.6685 26.6124V24.201H7.62656V30.2512C7.62656 34.3537 10.9957 37.6794 15.1518 37.6794H17.0276C17.9311 37.6794 18.6635 38.4024 18.6635 39.2943C18.6635 40.1861 17.9311 40.9091 17.0276 40.9091H15.2608C9.27989 40.9094 4.41453 36.1548 4.35472 30.2512V24.201H1.8245C1.19899 24.2726 0.587335 23.9835 0.251715 23.4575C-0.0839049 22.9316 -0.0839049 22.2622 0.251715 21.7362C0.587335 21.2103 1.19899 20.9212 1.8245 20.9928H48.1755ZM31.2492 9.23684C32.6087 9.23684 33.9125 9.76993 34.8737 10.7188C35.835 11.6677 36.3751 12.9547 36.3751 14.2966V17.0742C36.3813 17.2358 36.3189 17.3928 36.203 17.5072C36.0871 17.6216 35.9281 17.6831 35.7643 17.677H14.2793C14.1155 17.6831 13.9565 17.6216 13.8406 17.5072C13.7247 17.3928 13.6624 17.2358 13.6685 17.0742V14.2966C13.6685 11.5022 15.9635 9.23684 18.7944 9.23684H31.2492ZM35.0882 0C41.0346 0.105674 45.7989 4.89476 45.798 10.7655V13.0694C45.798 13.9612 45.0655 14.6842 44.162 14.6842C43.2586 14.6842 42.5261 13.9612 42.5261 13.0694V10.7655C42.5552 8.79172 41.7872 6.88762 40.3917 5.4737C38.9961 4.05979 37.0878 3.25234 35.0882 3.22966H33.3214C32.4179 3.22966 31.6854 2.50668 31.6854 1.61483C31.6854 0.722985 32.4179 0 33.3214 0H35.0882ZM16.9186 0C17.8171 0.0115962 18.5427 0.727833 18.5545 1.61483C18.5427 2.50183 17.8171 3.21807 16.9186 3.22966H15.1518C13.1369 3.22946 11.2061 4.02683 9.79171 5.44327C8.37728 6.8597 7.59736 8.77687 7.62656 10.7655V13.0694C7.61481 13.9564 6.88922 14.6726 5.99064 14.6842H5.96883L5.74906 14.6668C4.959 14.5514 4.35472 13.8793 4.35472 13.0694V10.7655C4.35442 4.86169 9.17113 0.0590386 15.1518 0H16.9186Z" fill="white"/>
</svg>
